<svg height="512" viewBox="0 0 58 59" width="512" xmlns="http://www.w3.org/2000/svg"><g id="008---IT-Request" fill="none"><path id="Shape" d="m52 0h-46c-3.3137085 0-6 2.6862915-6 6v34c0 3.3137085 2.6862915 6 6 6h11s.72 6.45-3.92 10.25c-.3474456.2680576-.4795329.731316-.3257004 1.1423013s.5576371.6736584.9957004.6476987c4.92-.34 13.18-2.38 15.25-12.04h23c3.3137085 0 6-2.6862915 6-6v-34c0-3.3137085-2.6862915-6-6-6z" fill="#3f5c6c"/><path id="Shape" d="m29 0v46c-2.07 9.66-10.33 11.7-15.25 12.04-.4380633.0259597-.8418679-.2367134-.9957004-.6476987s-.0217452-.8742437.3257004-1.1423013c4.64-3.8 3.92-10.25 3.92-10.25h-11c-3.3137085 0-6-2.6862915-6-6v-34c0-3.3137085 2.6862915-6 6-6z" fill="#547580"/><path id="Shape" d="m27.639 27.779 9.984 10.026c.7602974.7675026 1.7966744 1.1979755 2.877 1.195 1.6426886-.0149788 3.1166759-1.0122725 3.7415736-2.5315332.6248977-1.5192608.2791789-3.2650304-.8775736-4.4314668l-9.976-10.027z" fill="#f29c1f"/><path id="Shape" d="m27.649 19.12h-.01l-5.82-5.86h-.001l.718-.722-6.464-5.054-2.873 2.888 5.028 6.498.718-.722v.001l5.83 5.861z" fill="#95a5a5"/><path id="Shape" d="m18.2 37.264c-.5657102.5812793-1.3423813.9091797-2.1535.9091797s-1.5877898-.3279004-2.1535-.9091797c-1.1877837-1.1985735-1.1877837-3.1304265 0-4.329 13.952-14.008 13.656-13.815 13.756-13.815l1.751-1.766c-1.2979593-3.052509-.6172006-6.5870808 1.7216778-8.93913464 2.3388783-2.35205387 5.8695702-3.05265696 8.9293222-1.77186536l-5.322 5.357v4.329h4.306l5.322-5.35c1.2964408 3.0501827.6156538 6.5817445-1.7217309 8.9314266-2.3373847 2.349682-5.8653255 3.048991-8.9222691 1.7685734-8.52 8.569 3.727-3.753-15.513 15.585z" fill="#bdc3c7"/><g fill="#fff"><path id="Shape" d="m6 5h-1c-.55228475 0-1-.44771525-1-1s.44771525-1 1-1h1c.55228475 0 1 .44771525 1 1s-.44771525 1-1 1z"/><path id="Shape" d="m15 5h-5c-.55228475 0-1-.44771525-1-1s.44771525-1 1-1h5c.5522847 0 1 .44771525 1 1s-.4477153 1-1 1z"/><path id="Shape" d="m44 43h-1c-.5522847 0-1-.4477153-1-1s.4477153-1 1-1h1c.5522847 0 1 .4477153 1 1s-.4477153 1-1 1z"/><path id="Shape" d="m53 43h-5c-.5522847 0-1-.4477153-1-1s.4477153-1 1-1h5c.5522847 0 1 .4477153 1 1s-.4477153 1-1 1z"/></g></g></svg>