<svg width="24" height="24" viewBox="0 0 24 24" fill="none" xmlns="http://www.w3.org/2000/svg">
<path d="M9.33781 2.2V4.4C8.73115 4.4 8.25781 4.48666 7.91781 4.66C7.57781 4.82666 7.43115 5.16333 7.47781 5.67L7.78781 8.62C7.86781 9.36666 7.78448 9.97 7.53781 10.43C7.29781 10.89 6.92781 11.2433 6.42781 11.49C5.93448 11.73 5.35115 11.9 4.67781 12C5.39115 12.1067 5.99448 12.28 6.48781 12.52C6.98115 12.76 7.34115 13.1067 7.56781 13.56C7.79448 14.0133 7.86781 14.62 7.78781 15.38L7.47781 18.33C7.43115 18.8367 7.57781 19.1733 7.91781 19.34C8.25781 19.5133 8.73115 19.6 9.33781 19.6V21.8C7.49781 21.8 6.20448 21.52 5.45781 20.96C4.71781 20.4067 4.41781 19.4567 4.55781 18.11L4.85781 15.25C4.93781 14.49 4.71448 13.9733 4.18781 13.7C3.66115 13.42 2.97115 13.28 2.11781 13.28V10.72C2.67781 10.72 3.17448 10.6633 3.60781 10.55C4.04115 10.43 4.37115 10.2267 4.59781 9.94C4.82448 9.65333 4.91115 9.25666 4.85781 8.75L4.55781 5.91C4.41115 4.53666 4.71115 3.57666 5.45781 3.03C6.20448 2.47666 7.49781 2.2 9.33781 2.2Z" fill="white"/>
<path d="M14.67 2.2C16.51 2.2 17.8 2.47666 18.54 3.03C19.2867 3.58333 19.59 4.53666 19.45 5.89L19.15 8.75C19.07 9.51 19.2933 10.03 19.82 10.31C20.3533 10.5833 21.0433 10.72 21.89 10.72V13.28C21.33 13.28 20.8333 13.34 20.4 13.46C19.9667 13.5733 19.6367 13.7733 19.41 14.06C19.1833 14.3467 19.0967 14.7433 19.15 15.25L19.45 18.09C19.6033 19.4567 19.3033 20.4167 18.55 20.97C17.8033 21.5233 16.51 21.8 14.67 21.8V19.6C15.2833 19.6 15.76 19.5133 16.1 19.34C16.44 19.1733 16.5833 18.8367 16.53 18.33L16.22 15.38C16.14 14.6267 16.22 14.0233 16.46 13.57C16.7067 13.11 17.08 12.76 17.58 12.52C18.08 12.2733 18.6667 12.1 19.34 12C18.6267 11.8933 18.02 11.72 17.52 11.48C17.0267 11.24 16.6667 10.8933 16.44 10.44C16.2133 9.98 16.14 9.37333 16.22 8.62L16.53 5.67C16.5833 5.16333 16.4367 4.82666 16.09 4.66C15.75 4.48666 15.2767 4.4 14.67 4.4V2.2Z" fill="orange"/>
</svg>
